<svg xmlns="http://www.w3.org/2000/svg">
    <symbol id="icon-aircraft" viewBox="0 0 32 32">
        <g style="fill-rule:evenodd;clip-rule:evenodd;stroke-linejoin:round;stroke-miterlimit:2;">
            <path d="M28.916,10.335l0.007,-0.005l0.005,0.006l0.136,0.017l-0.075,0.066l1.136,1.526l-8.381,6.239l-0.59,-0.793l-0.024,0.021l-9.088,-9.162l16.874,2.085Z"/>
            <path d="M9.965,28.574l-0.005,0.007l0.006,0.005l0.017,0.136l0.066,-0.075l1.527,1.136l6.234,-8.385l-0.793,-0.589l0.021,-0.024l-9.167,-9.084l2.094,16.873Z"/>
            <path d="M24.861,31.483l-0.002,0.003l0.003,0.002l0.014,0.058l0.025,-0.036l0.711,0.414l2.27,-3.907l-0.37,-0.215l0.008,-0.011l-4.382,-3.456l1.723,7.148Z"/>
            <path d="M31.24,25.34l0.004,-0.002l0.001,0.003l0.057,0.017l-0.036,0.023l0.382,0.728l-4.001,2.099l-0.198,-0.378l-0.012,0.007l-3.263,-4.527l7.066,2.03Z"/>
            <path d="M18.886,22.322l3.451,-3.451l3.951,5.677l-1.725,1.725l-5.677,-3.951Z"/>
            <path d="M28.409,28.498l-4.711,-2.806l1.904,-1.905l2.807,4.711Z"/>
            <path id="Main-Fuselage" serif:id="Main Fuselage" d="M10.096,6.017l13.636,13.636l-4.111,4.111l-13.636,-13.636l0.164,-0.164l1.37,-0.318l2.07,-2.071l0.319,-1.37l0.188,-0.188Z"/>
            <path d="M10.428,7.025l-3.29,3.29l-0.748,-1.913l2.126,-2.125l1.912,0.748Z"/>
            <path d="M0.713,0.587c0.149,0.039 3.119,0.867 7.802,5.692c4.749,4.892 -0.917,1.149 -1.055,1.058c0.178,0.27 3.768,5.737 -1.063,1.048c-4.951,-4.807 -5.694,-7.808 -5.694,-7.808l0.01,0.01Z"/>
            <path d="M16.175,7.024c0.094,0.025 1.962,0.546 4.907,3.581c2.987,3.076 -0.577,0.722 -0.664,0.665c0.112,0.17 2.37,3.608 -0.668,0.659c-3.114,-3.023 -3.581,-4.911 -3.581,-4.911l0.006,0.006Z"/>
            <path d="M6.37,15.598c0.094,0.025 1.962,0.546 4.907,3.58c2.987,3.077 -0.577,0.723 -0.664,0.665c0.112,0.17 2.37,3.609 -0.668,0.659c-3.114,-3.023 -3.581,-4.91 -3.581,-4.91l0.006,0.006Z"/>
        </g>
    </symbol>
</svg>
